<svg version="1.1" viewBox="0.0 0.0 697.8530183727034 699.2020997375328" fill="none" stroke="none" stroke-linecap="square" stroke-miterlimit="10" xmlns:xlink="http://www.w3.org/1999/xlink" xmlns="http://www.w3.org/2000/svg"><clipPath id="p.0"><path d="m0 0l697.853 0l0 699.2021l-697.853 0l0 -699.2021z" clip-rule="nonzero"/></clipPath><g clip-path="url(#p.0)"><path fill="#000000" fill-opacity="0.0" d="m0 0l697.853 0l0 699.2021l-697.853 0z" fill-rule="evenodd"/><path fill="#000000" d="m51.47769 349.60104l0 0c0 -164.75479 133.56015 -298.31494 298.31497 -298.31494l0 0c79.11804 0 154.9956 31.429523 210.94049 87.374435c55.944946 55.9449 87.37445 131.82248 87.37445 210.94052l0 0c0 164.75479 -133.56018 298.31497 -298.31494 298.31497l0 0c-164.75482 0 -298.31497 -133.56018 -298.31497 -298.31497z" fill-rule="evenodd"/><path fill="#ffffff" d="m467.57217 312.19815l0 104.944885l0 0c0 57.959473 -55.298126 104.944916 -123.51181 104.944916c-68.213684 0 -123.51181 -46.985443 -123.51181 -104.944916l0 -104.944885z" fill-rule="evenodd"/><path fill="#ffffff" d="m440.97882 319.71655l0 0c61.452515 1.9847107 109.262695 35.552307 107.739746 75.64426c-1.5229492 40.09195 -51.82321 72.0762 -113.351105 72.0762l0 -36.95276c41.66559 0 75.65491 -16.133575 76.420166 -36.274048c0.7652893 -20.140472 -31.975464 -36.8667 -73.612946 -37.606537z" fill-rule="evenodd"/><path fill="#ffffff" d="m149.09973 482.37927l0 0c0 -26.84018 87.67464 -48.59842 195.82678 -48.59842l0 0c108.15213 0 195.82678 21.75824 195.82678 48.59842l0 0c0 26.840149 -87.67465 48.59839 -195.82678 48.59839l0 0c-108.152145 0 -195.82678 -21.75824 -195.82678 -48.59839z" fill-rule="evenodd"/><path fill="#000000" fill-opacity="0.0" d="m437.62466 297.8058c-5.174103 -5.849518 -28.119843 -20.92389 -31.044617 -35.097137c-2.9247437 -14.173218 13.721344 -34.194656 13.496063 -49.942245c-0.22528076 -15.747589 -12.373138 -37.119415 -14.847778 -44.543304" fill-rule="evenodd"/><path stroke="#ffffff" stroke-width="8.0" stroke-linejoin="round" stroke-linecap="butt" d="m437.62466 297.8058c-5.174103 -5.849518 -28.119843 -20.92389 -31.044617 -35.097137c-2.9247437 -14.173218 13.721344 -34.194656 13.496063 -49.942245c-0.22528076 -15.747589 -12.373138 -37.119415 -14.847778 -44.543304" fill-rule="evenodd"/><path fill="#000000" fill-opacity="0.0" d="m329.17892 168.2231c5.174103 5.849518 28.119843 20.92389 31.044617 35.097107c2.9247437 14.173233 -13.721344 34.19467 -13.496063 49.94226c0.22528076 15.747604 12.373138 37.11943 14.847748 44.54332" fill-rule="evenodd"/><path stroke="#ffffff" stroke-width="8.0" stroke-linejoin="round" stroke-linecap="butt" d="m329.17892 168.2231c5.174103 5.849518 28.119843 20.92389 31.044617 35.097107c2.9247437 14.173233 -13.721344 34.19467 -13.496063 49.94226c0.22528076 15.747604 12.373138 37.11943 14.847748 44.54332" fill-rule="evenodd"/><path fill="#000000" fill-opacity="0.0" d="m308.27487 297.8058c-5.174103 -5.849518 -28.119873 -20.92389 -31.044617 -35.097137c-2.9247742 -14.173218 13.721344 -34.194656 13.496063 -49.942245c-0.22531128 -15.747589 -12.373169 -37.119415 -14.847778 -44.543304" fill-rule="evenodd"/><path stroke="#ffffff" stroke-width="8.0" stroke-linejoin="round" stroke-linecap="butt" d="m308.27487 297.8058c-5.174103 -5.849518 -28.119873 -20.92389 -31.044617 -35.097137c-2.9247742 -14.173218 13.721344 -34.194656 13.496063 -49.942245c-0.22531128 -15.747589 -12.373169 -37.119415 -14.847778 -44.543304" fill-rule="evenodd"/></g></svg>